<svg width="17" height="17" viewBox="0 0 17 17" fill="none" xmlns="http://www.w3.org/2000/svg">
<path fill-rule="evenodd" clip-rule="evenodd" d="M8.50004 2.448C5.07284 2.448 2.29504 5.2258 2.29504 8.653C2.29504 11.3934 4.07324 13.719 6.53824 14.5418C6.84764 14.5996 6.96324 14.4058 6.96324 14.2426C6.96324 14.093 6.95644 13.6068 6.95644 13.0866C5.22924 13.4606 4.86544 12.3556 4.86544 12.3556C4.58324 11.6382 4.17524 11.4478 4.17524 11.4478C3.61084 11.0636 4.21604 11.0704 4.21604 11.0704C4.83824 11.1146 5.16804 11.7096 5.16804 11.7096C5.72224 12.6582 6.61984 12.3828 6.97344 12.2264C7.02784 11.8252 7.19104 11.5532 7.36784 11.3968C5.99084 11.2404 4.53904 10.7066 4.53904 8.33C4.53904 7.6534 4.78044 7.0992 5.17824 6.664C5.11364 6.5076 4.90284 5.8752 5.23944 5.0218C5.23944 5.0218 5.75964 4.8552 6.94624 5.6576C7.44264 5.5216 7.97304 5.4502 8.50004 5.4502C9.02704 5.4536 9.55744 5.5216 10.0538 5.6576C11.237 4.8552 11.7572 5.0218 11.7572 5.0218C12.0938 5.8752 11.883 6.5076 11.8184 6.664C12.2162 7.0992 12.4576 7.6534 12.4576 8.33C12.4576 10.7134 11.0058 11.237 9.62544 11.39C9.84644 11.5838 10.047 11.9612 10.047 12.5392C10.047 13.3688 10.0402 14.0386 10.0402 14.2426C10.0402 14.4092 10.1524 14.5996 10.4652 14.5418C12.9302 13.719 14.705 11.3968 14.705 8.653C14.705 5.2258 11.9272 2.448 8.50004 2.448Z" fill="#FCFCFC"/>
<path d="M4.64441 11.356C4.63081 11.3866 4.58321 11.3968 4.53901 11.3764C4.49481 11.356 4.46761 11.3152 4.48461 11.2846C4.49821 11.254 4.54581 11.2438 4.59001 11.2642C4.63421 11.2846 4.66141 11.3254 4.64441 11.356Z" fill="#FCFCFC"/>
<path d="M4.89607 11.6382C4.86547 11.6654 4.80767 11.6518 4.77027 11.611C4.72947 11.5668 4.72267 11.509 4.75327 11.4818C4.78387 11.4546 4.83827 11.4682 4.87907 11.509C4.91987 11.5532 4.92667 11.611 4.89607 11.6382Z" fill="#FCFCFC"/>
<path d="M5.14084 11.9952C5.10344 12.0224 5.04224 11.9986 5.00144 11.9408C4.96404 11.8864 4.96404 11.8184 5.00144 11.7912C5.03884 11.764 5.10004 11.7878 5.14084 11.8422C5.18164 11.9 5.18164 11.968 5.14084 11.9952Z" fill="#FCFCFC"/>
<path d="M5.47747 12.3386C5.44347 12.376 5.37207 12.3658 5.31767 12.3148C5.26327 12.2638 5.24967 12.1924 5.28367 12.155C5.31767 12.1176 5.39247 12.1278 5.44347 12.1788C5.49787 12.2332 5.51147 12.3046 5.47747 12.3386Z" fill="#FCFCFC"/>
<path d="M5.93981 12.5392C5.92621 12.5868 5.85481 12.6106 5.78341 12.5902C5.71201 12.5698 5.66781 12.512 5.68141 12.4644C5.69501 12.4168 5.76641 12.393 5.83781 12.4134C5.90581 12.4338 5.95341 12.4916 5.93981 12.5392Z" fill="#FCFCFC"/>
<path d="M6.44646 12.5766C6.44986 12.6276 6.38866 12.6718 6.31386 12.6718C6.23906 12.6752 6.18126 12.631 6.17786 12.58C6.17786 12.529 6.23566 12.4848 6.31046 12.4848C6.38526 12.4848 6.44646 12.5256 6.44646 12.5766Z" fill="#FCFCFC"/>
<path d="M6.91904 12.4984C6.92924 12.5494 6.87824 12.6004 6.80344 12.614C6.73204 12.6276 6.66404 12.597 6.65724 12.546C6.64704 12.495 6.70144 12.444 6.77284 12.4304C6.84424 12.4168 6.90884 12.4474 6.91904 12.4984Z" fill="#FCFCFC"/>
</svg>
